<?xml version="1.0" encoding="UTF-8"?>
<svg id="Layer_2" data-name="Layer 2" xmlns="http://www.w3.org/2000/svg" viewBox="0 0 435.11 124.32">
  <defs>
    <style>
      .cls-1 {
        fill: #172218;
      }

      .cls-1, .cls-2 {
        stroke-width: 0px;
      }

      .cls-2 {
        fill: none;
      }
    </style>
  </defs>
  <g id="Layer_1-2" data-name="Layer 1">
    <g>
      <rect class="cls-1" x="124.18" y="46.14" width="14.56" height="44.66"/>
      <path class="cls-1" d="m95.05,68.47c0,9.37-7.62,16.99-16.99,16.99s-16.99-7.62-16.99-16.99h-14.56c0,17.4,14.15,31.55,31.55,31.55s31.55-14.16,31.55-31.55V24.29h-14.56v44.18Z"/>
      <circle class="cls-1" cx="131.46" cy="32.06" r="7.28"/>
      <path class="cls-1" d="m291.66,39.34c-8.06,0-15.33,3.47-20.39,8.99-5.06-5.52-12.33-8.99-20.39-8.99-15.09,0-27.4,12.15-27.66,27.18h-.01v24.27h14.56v-23.79c0-7.23,5.88-13.11,13.11-13.11s13.11,5.88,13.11,13.11v23.79h14.56v-23.79c0-7.23,5.88-13.11,13.11-13.11s13.11,5.88,13.11,13.11v23.79h14.56v-24.27h-.01c-.26-15.03-12.56-27.18-27.66-27.18Z"/>
      <path class="cls-1" d="m180.98,39.34c-15.09,0-27.4,12.15-27.66,27.18h-.01v24.27h14.56v-23.79c0-7.23,5.88-13.11,13.11-13.11s13.11,5.88,13.11,13.11v23.79h14.56v-24.27h-.01c-.26-15.03-12.56-27.18-27.66-27.18Z"/>
      <path class="cls-1" d="m374.04,42.86v20.56c0,7.23-5.88,13.11-13.11,13.11s-13.11-5.88-13.11-13.11v-20.56h-14.56v22.02h.04c.76,14.58,12.87,26.2,27.63,26.2,4.74,0,9.2-1.2,13.11-3.31v3.62h14.56v-48.54h-14.56Z"/>
    </g>
    <rect class="cls-2" width="435.11" height="124.32"/>
  </g>
</svg>